<svg enable-background="new 0 0 53 7.6" viewBox="0 0 53 7.6" xmlns="http://www.w3.org/2000/svg"><g fill="#fff"><path d="m0 0h1.8v2.8h3.2v-2.8h1.8v7.4h-1.8v-3.2h-3.2v3.2h-1.8z"/><path d="m10.8 1.9c1.8 0 3 1.1 3 2.8s-1.2 2.8-3 2.8-3-1.1-3-2.8 1.2-2.8 3-2.8zm0 4.5c1.1 0 1.4-.9 1.4-1.7 0-.9-.3-1.7-1.4-1.7s-1.4.9-1.4 1.7c0 .9.3 1.7 1.4 1.7z"/><path d="m14.8 2h1.5v.7c.4-.5 1-.9 1.8-.9.7 0 1.4.2 1.7.9.3-.5.9-.9 1.7-.9 1.2 0 2.1.5 2.1 1.9v3.6h-1.6v-3c0-.7-.1-1.3-1-1.3s-1.1.7-1.1 1.4v3h-1.6v-3c0-.6 0-1.3-1-1.3-.3 0-1.1.2-1.1 1.2v3.1h-1.6v-5.4z"/><path d="m26.1 5.1c0 .9.5 1.4 1.4 1.4.6 0 1.2-.4 1.3-.7h1.4c-.4 1.3-1.4 1.8-2.7 1.8-1.8 0-3-1.2-3-2.8s1.2-2.8 3-2.8c2 0 2.9 1.5 2.8 3.2h-4.2zm2.6-.9c-.2-.8-.5-1.2-1.3-1.2-1 0-1.3.7-1.3 1.1h2.6z"/><path d="m35.1 4c0 .6-.5 1.1-1.2 1.1s-1.1-.5-1.1-1.1.5-1.1 1.2-1.1c.6 0 1.1.5 1.1 1.1z"/><path d="m39.9 0h1.8l3 7.4h-1.8l-.6-1.6h-3l-.6 1.6h-1.8zm-.2 4.5h2.1l-1-2.7z"/><path d="m45.2 2h1.5v1c.3-.7 1.1-1.1 1.8-1.1.1 0 .2 0 .3.1v1.4c-.1 0-.4-.1-.6-.1-1.2 0-1.6.8-1.6 1.7v2.4h-1.6v-5.4z"/><path d="m51.8 2h1.2v1h-1.2v2.7c0 .5.1.6.7.6h.5v1.2c-.3 0-.6.1-.9.1-1 0-1.8-.2-1.8-1.3v-3.3h-1v-1h1v-1.6h1.6v1.6z"/></g></svg>